<svg id="Layer_1" data-name="Layer 1" xmlns="http://www.w3.org/2000/svg" viewBox="0 0 512 512"><title>stopwatch</title><path d="M256,512,32,384V128L256,0,480,128V384ZM39.88,379.43,256,502.9,472.12,379.43V132.57L256,9.1,39.88,132.57Z" fill="#231f20"/><path d="M316.46,200.15l9.42-11.75,3.12,2.5,2.51-3.13-15.6-12.51-2.51,3.12,3.12,2.5L307.2,192.5A87.48,87.48,0,0,0,264,176.38V160H248v16.38a88.11,88.11,0,1,0,68.46,23.77ZM256,344a80,80,0,1,1,80-80A80.09,80.09,0,0,1,256,344Zm8-80a8,8,0,1,1-12-6.89V200h8v57.11A8,8,0,0,1,264,264Z" fill="#231f20"/></svg>